<mxfile host="app.diagrams.net" modified="2020-09-25T01:50:09.550Z" agent="5.0 (Macintosh; Intel Mac OS X 10_15_6) AppleWebKit/605.1.15 (KHTML, like Gecko) Version/14.0 Safari/605.1.15" etag="H2dhmRHir0LWp3qAGIpz" version="13.7.5" type="github">
  <diagram id="C5RBs43oDa-KdzZeNtuy" name="Page-1">
    <mxGraphModel dx="946" dy="662" grid="1" gridSize="10" guides="1" tooltips="1" connect="1" arrows="1" fold="1" page="1" pageScale="1" pageWidth="827" pageHeight="1169" math="0" shadow="0">
      <root>
        <mxCell id="WIyWlLk6GJQsqaUBKTNV-0" />
        <mxCell id="WIyWlLk6GJQsqaUBKTNV-1" parent="WIyWlLk6GJQsqaUBKTNV-0" />
        <mxCell id="y97rDnwsxnqMe8Ydf_ro-21" value="" style="edgeStyle=orthogonalEdgeStyle;rounded=0;orthogonalLoop=1;jettySize=auto;html=1;" edge="1" parent="WIyWlLk6GJQsqaUBKTNV-1" source="y97rDnwsxnqMe8Ydf_ro-22">
          <mxGeometry relative="1" as="geometry">
            <mxPoint x="370" y="110" as="targetPoint" />
          </mxGeometry>
        </mxCell>
        <mxCell id="y97rDnwsxnqMe8Ydf_ro-22" value="Setup" style="rounded=1;whiteSpace=wrap;html=1;fontSize=12;glass=0;strokeWidth=1;shadow=0;" vertex="1" parent="WIyWlLk6GJQsqaUBKTNV-1">
          <mxGeometry x="170" y="90" width="120" height="40" as="geometry" />
        </mxCell>
        <mxCell id="y97rDnwsxnqMe8Ydf_ro-23" value="" style="rounded=0;html=1;jettySize=auto;orthogonalLoop=1;fontSize=11;endArrow=block;endFill=0;endSize=8;strokeWidth=1;shadow=0;labelBackgroundColor=none;edgeStyle=orthogonalEdgeStyle;entryX=0.5;entryY=0;entryDx=0;entryDy=0;" edge="1" parent="WIyWlLk6GJQsqaUBKTNV-1" source="y97rDnwsxnqMe8Ydf_ro-24" target="y97rDnwsxnqMe8Ydf_ro-29">
          <mxGeometry y="20" relative="1" as="geometry">
            <mxPoint as="offset" />
            <mxPoint x="230" y="260" as="sourcePoint" />
            <mxPoint x="230" y="300" as="targetPoint" />
          </mxGeometry>
        </mxCell>
        <mxCell id="y97rDnwsxnqMe8Ydf_ro-24" value="Loop" style="rounded=1;whiteSpace=wrap;html=1;fontSize=12;glass=0;strokeWidth=1;shadow=0;" vertex="1" parent="WIyWlLk6GJQsqaUBKTNV-1">
          <mxGeometry x="170" y="190" width="120" height="40" as="geometry" />
        </mxCell>
        <mxCell id="y97rDnwsxnqMe8Ydf_ro-25" style="edgeStyle=orthogonalEdgeStyle;rounded=0;orthogonalLoop=1;jettySize=auto;html=1;entryX=0;entryY=0.5;entryDx=0;entryDy=0;" edge="1" parent="WIyWlLk6GJQsqaUBKTNV-1" source="y97rDnwsxnqMe8Ydf_ro-26" target="y97rDnwsxnqMe8Ydf_ro-35">
          <mxGeometry relative="1" as="geometry" />
        </mxCell>
        <mxCell id="y97rDnwsxnqMe8Ydf_ro-26" value="Pulsador2" style="rounded=1;whiteSpace=wrap;html=1;fontSize=12;glass=0;strokeWidth=1;shadow=0;" vertex="1" parent="WIyWlLk6GJQsqaUBKTNV-1">
          <mxGeometry x="172" y="490" width="120" height="40" as="geometry" />
        </mxCell>
        <mxCell id="y97rDnwsxnqMe8Ydf_ro-27" style="edgeStyle=orthogonalEdgeStyle;rounded=0;orthogonalLoop=1;jettySize=auto;html=1;exitX=1;exitY=0.5;exitDx=0;exitDy=0;entryX=0;entryY=0.5;entryDx=0;entryDy=0;" edge="1" parent="WIyWlLk6GJQsqaUBKTNV-1" source="y97rDnwsxnqMe8Ydf_ro-29" target="y97rDnwsxnqMe8Ydf_ro-34">
          <mxGeometry relative="1" as="geometry" />
        </mxCell>
        <mxCell id="y97rDnwsxnqMe8Ydf_ro-28" value="" style="edgeStyle=orthogonalEdgeStyle;rounded=0;orthogonalLoop=1;jettySize=auto;html=1;entryX=0.5;entryY=0;entryDx=0;entryDy=0;" edge="1" parent="WIyWlLk6GJQsqaUBKTNV-1" source="y97rDnwsxnqMe8Ydf_ro-29" target="y97rDnwsxnqMe8Ydf_ro-38">
          <mxGeometry relative="1" as="geometry" />
        </mxCell>
        <mxCell id="y97rDnwsxnqMe8Ydf_ro-29" value="Pulsador1" style="rounded=1;whiteSpace=wrap;html=1;fontSize=12;glass=0;strokeWidth=1;shadow=0;" vertex="1" parent="WIyWlLk6GJQsqaUBKTNV-1">
          <mxGeometry x="170" y="270" width="120" height="40" as="geometry" />
        </mxCell>
        <mxCell id="y97rDnwsxnqMe8Ydf_ro-30" style="edgeStyle=orthogonalEdgeStyle;rounded=0;orthogonalLoop=1;jettySize=auto;html=1;exitX=0.5;exitY=1;exitDx=0;exitDy=0;" edge="1" parent="WIyWlLk6GJQsqaUBKTNV-1" source="y97rDnwsxnqMe8Ydf_ro-41" target="y97rDnwsxnqMe8Ydf_ro-24">
          <mxGeometry relative="1" as="geometry">
            <mxPoint x="230" y="180" as="targetPoint" />
            <Array as="points">
              <mxPoint x="600" y="155" />
              <mxPoint x="230" y="155" />
            </Array>
          </mxGeometry>
        </mxCell>
        <mxCell id="y97rDnwsxnqMe8Ydf_ro-31" style="edgeStyle=orthogonalEdgeStyle;rounded=0;orthogonalLoop=1;jettySize=auto;html=1;entryX=0;entryY=0.5;entryDx=0;entryDy=0;" edge="1" parent="WIyWlLk6GJQsqaUBKTNV-1" source="y97rDnwsxnqMe8Ydf_ro-32" target="y97rDnwsxnqMe8Ydf_ro-41">
          <mxGeometry relative="1" as="geometry" />
        </mxCell>
        <mxCell id="y97rDnwsxnqMe8Ydf_ro-32" value="Configura 2 leds" style="rounded=1;whiteSpace=wrap;html=1;fontSize=12;glass=0;strokeWidth=1;shadow=0;" vertex="1" parent="WIyWlLk6GJQsqaUBKTNV-1">
          <mxGeometry x="370" y="90" width="120" height="40" as="geometry" />
        </mxCell>
        <mxCell id="y97rDnwsxnqMe8Ydf_ro-33" style="edgeStyle=orthogonalEdgeStyle;rounded=0;orthogonalLoop=1;jettySize=auto;html=1;entryX=0;entryY=0.5;entryDx=0;entryDy=0;" edge="1" parent="WIyWlLk6GJQsqaUBKTNV-1" source="y97rDnwsxnqMe8Ydf_ro-34" target="y97rDnwsxnqMe8Ydf_ro-36">
          <mxGeometry relative="1" as="geometry" />
        </mxCell>
        <mxCell id="y97rDnwsxnqMe8Ydf_ro-34" value="Enciende bombilla1" style="rounded=1;whiteSpace=wrap;html=1;fontSize=12;glass=0;strokeWidth=1;shadow=0;" vertex="1" parent="WIyWlLk6GJQsqaUBKTNV-1">
          <mxGeometry x="352" y="270" width="120" height="40" as="geometry" />
        </mxCell>
        <mxCell id="y97rDnwsxnqMe8Ydf_ro-42" style="edgeStyle=orthogonalEdgeStyle;rounded=0;orthogonalLoop=1;jettySize=auto;html=1;entryX=0;entryY=0.75;entryDx=0;entryDy=0;" edge="1" parent="WIyWlLk6GJQsqaUBKTNV-1" source="y97rDnwsxnqMe8Ydf_ro-35" target="y97rDnwsxnqMe8Ydf_ro-24">
          <mxGeometry relative="1" as="geometry">
            <Array as="points">
              <mxPoint x="412" y="560" />
              <mxPoint x="130" y="560" />
              <mxPoint x="130" y="220" />
            </Array>
          </mxGeometry>
        </mxCell>
        <mxCell id="y97rDnwsxnqMe8Ydf_ro-35" value="Enciende bombilla1" style="rounded=1;whiteSpace=wrap;html=1;fontSize=12;glass=0;strokeWidth=1;shadow=0;" vertex="1" parent="WIyWlLk6GJQsqaUBKTNV-1">
          <mxGeometry x="352" y="490" width="120" height="40" as="geometry" />
        </mxCell>
        <mxCell id="y97rDnwsxnqMe8Ydf_ro-36" value="Enciende bombilla2" style="rounded=1;whiteSpace=wrap;html=1;fontSize=12;glass=0;strokeWidth=1;shadow=0;" vertex="1" parent="WIyWlLk6GJQsqaUBKTNV-1">
          <mxGeometry x="520" y="270" width="120" height="40" as="geometry" />
        </mxCell>
        <mxCell id="y97rDnwsxnqMe8Ydf_ro-37" style="edgeStyle=orthogonalEdgeStyle;rounded=0;orthogonalLoop=1;jettySize=auto;html=1;entryX=0.5;entryY=0;entryDx=0;entryDy=0;" edge="1" parent="WIyWlLk6GJQsqaUBKTNV-1" source="y97rDnwsxnqMe8Ydf_ro-38" target="y97rDnwsxnqMe8Ydf_ro-40">
          <mxGeometry relative="1" as="geometry" />
        </mxCell>
        <mxCell id="y97rDnwsxnqMe8Ydf_ro-38" value="Apaga" style="rounded=1;whiteSpace=wrap;html=1;fontSize=12;glass=0;strokeWidth=1;shadow=0;" vertex="1" parent="WIyWlLk6GJQsqaUBKTNV-1">
          <mxGeometry x="170" y="340" width="120" height="40" as="geometry" />
        </mxCell>
        <mxCell id="y97rDnwsxnqMe8Ydf_ro-39" style="edgeStyle=orthogonalEdgeStyle;rounded=0;orthogonalLoop=1;jettySize=auto;html=1;entryX=0.5;entryY=0;entryDx=0;entryDy=0;" edge="1" parent="WIyWlLk6GJQsqaUBKTNV-1" source="y97rDnwsxnqMe8Ydf_ro-40" target="y97rDnwsxnqMe8Ydf_ro-26">
          <mxGeometry relative="1" as="geometry" />
        </mxCell>
        <mxCell id="y97rDnwsxnqMe8Ydf_ro-40" value="Start" style="rounded=1;whiteSpace=wrap;html=1;fontSize=12;glass=0;strokeWidth=1;shadow=0;" vertex="1" parent="WIyWlLk6GJQsqaUBKTNV-1">
          <mxGeometry x="172" y="420" width="120" height="40" as="geometry" />
        </mxCell>
        <mxCell id="y97rDnwsxnqMe8Ydf_ro-41" value="Selecciona 2 Pulsadores" style="rounded=1;whiteSpace=wrap;html=1;fontSize=12;glass=0;strokeWidth=1;shadow=0;" vertex="1" parent="WIyWlLk6GJQsqaUBKTNV-1">
          <mxGeometry x="540" y="90" width="120" height="40" as="geometry" />
        </mxCell>
      </root>
    </mxGraphModel>
  </diagram>
</mxfile>
